<svg id="Filled" height="512" viewBox="0 0 512 512" width="512" xmlns="http://www.w3.org/2000/svg"><path d="m48 256h416v232h-416z" fill="#f7b030"/><path d="m480 248h-448l40-80h368z" fill="#2d85cc"/><path d="m88 136h336a16 16 0 0 1 16 16v16a0 0 0 0 1 0 0h-368a0 0 0 0 1 0 0v-16a16 16 0 0 1 16-16z" fill="#1261a0"/><path d="m32 248h64a0 0 0 0 1 0 0v16a32 32 0 0 1 -32 32 32 32 0 0 1 -32-32v-16a0 0 0 0 1 0 0z" fill="#1261a0"/><path d="m96 248h64a0 0 0 0 1 0 0v16a32 32 0 0 1 -32 32 32 32 0 0 1 -32-32v-16a0 0 0 0 1 0 0z" fill="#a3d4f7"/><path d="m160 248h64a0 0 0 0 1 0 0v16a32 32 0 0 1 -32 32 32 32 0 0 1 -32-32v-16a0 0 0 0 1 0 0z" fill="#1261a0"/><path d="m224 248h64a0 0 0 0 1 0 0v16a32 32 0 0 1 -32 32 32 32 0 0 1 -32-32v-16a0 0 0 0 1 0 0z" fill="#a3d4f7"/><path d="m288 248h64a0 0 0 0 1 0 0v16a32 32 0 0 1 -32 32 32 32 0 0 1 -32-32v-16a0 0 0 0 1 0 0z" fill="#1261a0"/><path d="m352 248h64a0 0 0 0 1 0 0v16a32 32 0 0 1 -32 32 32 32 0 0 1 -32-32v-16a0 0 0 0 1 0 0z" fill="#a3d4f7"/><path d="m416 248h64a0 0 0 0 1 0 0v16a32 32 0 0 1 -32 32 32 32 0 0 1 -32-32v-16a0 0 0 0 1 0 0z" fill="#1261a0"/><path d="m320 88a64 64 0 1 0 -102.626 51.023l38.626 76.977 38.626-76.977a63.892 63.892 0 0 0 25.374-51.023z" fill="#eb423f"/><circle cx="256" cy="88" fill="#962523" r="24"/><path d="m208 328h96v160h-96z" fill="#d46109"/><path d="m80 344h96v112h-96z" fill="#e9eef2"/><path d="m336 344h96v112h-96z" fill="#e9eef2"/><path d="m487.155 244.422-39.155-78.311v-14.111a24.027 24.027 0 0 0 -24-24h-108.08a72 72 0 1 0 -119.84 0h-108.08a24.027 24.027 0 0 0 -24 24v14.111l-39.155 78.311a7.974 7.974 0 0 0 -.83 3.578h-.015v16a39.964 39.964 0 0 0 16.028 32h-.028v192a8 8 0 0 0 8 8h416a8 8 0 0 0 8-8v-192h-.028a39.964 39.964 0 0 0 16.028-32v-16h-.015a7.974 7.974 0 0 0 -.83-3.578zm-63.155-100.422a8.009 8.009 0 0 1 8 8v8h-138.949l7.915-15.775c.093-.074.182-.151.274-.225zm-168-112a56 56 0 0 1 33.792 100.648 8.012 8.012 0 0 0 -2.317 2.788l-31.475 62.726-31.476-62.726a8 8 0 0 0 -2.316-2.788 56 56 0 0 1 33.792-100.648zm-176 120a8.009 8.009 0 0 1 8-8h122.76c.092.074.181.151.273.225l7.916 15.775h-138.949zm-3.056 24h150.034l21.872 43.588a8 8 0 0 0 14.3 0l21.872-43.588h150.034l32 64h-422.112zm331.056 80v8a24 24 0 0 1 -48 0v-8zm-64 0v8a24 24 0 0 1 -48 0v-8zm-64 0v8a24 24 0 0 1 -48 0v-8zm-64 0v8a24 24 0 0 1 -48 0v-8zm-64 0v8a24 24 0 0 1 -48 0v-8zm-112 8v-8h48v8a24 24 0 0 1 -48 0zm256 216h-80v-144h80zm160 0h-144v-152a8 8 0 0 0 -8-8h-96a8 8 0 0 0 -8 8v152h-144v-176.8a39.991 39.991 0 0 0 40-15.223 39.958 39.958 0 0 0 64 0 39.958 39.958 0 0 0 64 0 39.958 39.958 0 0 0 64 0 39.958 39.958 0 0 0 64 0 39.958 39.958 0 0 0 64 0 39.991 39.991 0 0 0 40 15.223zm16-216a24 24 0 0 1 -48 0v-8h48z"/><path d="m256 120a32 32 0 1 0 -32-32 32.036 32.036 0 0 0 32 32zm0-48a16 16 0 1 1 -16 16 16.019 16.019 0 0 1 16-16z"/><circle cx="272" cy="424" r="8"/><path d="m240 400h32a8 8 0 0 0 8-8v-32a8 8 0 0 0 -8-8h-32a8 8 0 0 0 -8 8v32a8 8 0 0 0 8 8zm8-32h16v16h-16z"/><path d="m176 336h-96a8 8 0 0 0 -8 8v112a8 8 0 0 0 8 8h96a8 8 0 0 0 8-8v-112a8 8 0 0 0 -8-8zm-8 112h-80v-96h80z"/><path d="m432 336h-96a8 8 0 0 0 -8 8v112a8 8 0 0 0 8 8h96a8 8 0 0 0 8-8v-112a8 8 0 0 0 -8-8zm-8 112h-80v-96h80z"/><path d="m112 424a7.976 7.976 0 0 0 5.657-2.343l32-32a8 8 0 1 0 -11.314-11.314l-32 32a8 8 0 0 0 5.657 13.657z"/><path d="m368 424a7.976 7.976 0 0 0 5.657-2.343l32-32a8 8 0 0 0 -11.314-11.314l-32 32a8 8 0 0 0 5.657 13.657z"/></svg>