<svg height="512pt" viewBox="-16 0 512 512" width="512pt" xmlns="http://www.w3.org/2000/svg"><path d="m280 344c.011719 12.691406 5.082031 24.851562 14.09375 33.785156s21.214844 13.90625 33.90625 13.808594l16 .40625h63.839844c35.433594 0 64.160156 28.726562 64.160156 64.160156v47.839844h-464v-47.839844c0-35.433594 28.726562-64.160156 64.160156-64.160156h63.839844l16-.40625c12.691406.097656 24.894531-4.875 33.90625-13.808594s14.082031-21.09375 14.09375-33.785156v-32h80zm0 0" fill="#f7cca9"/><path d="m281.121094 354.214844c-.742188-3.355469-1.117188-6.777344-1.121094-10.214844v-32h-80v32c-.003906 3.4375-.378906 6.859375-1.121094 10.214844 26.871094 7.714844 55.371094 7.714844 82.242188 0zm0 0" fill="#efbb95"/><path d="m407.839844 392h-63.839844l-16-.40625c-4.117188-.015625-8.21875-.554688-12.199219-1.601562l-27.800781 42.007812h-96l-27.800781-42c-3.980469 1.046875-8.082031 1.585938-12.199219 1.601562l-16 .398438h-63.839844c-35.433594 0-64.160156 28.726562-64.160156 64.160156v47.839844h464v-47.839844c0-35.433594-28.726562-64.160156-64.160156-64.160156zm0 0" fill="#ac8168"/><path d="m232 432h16v72h-16zm0 0" fill="#abb1bb"/><path d="m296 456 19.800781-66c-6.472656-1.65625-12.527343-4.65625-17.769531-8.800781l-58.03125 50.800781zm0 0" fill="#abb1bb"/><path d="m240 432-58.03125-50.777344c-5.242188 4.144532-11.296875 7.144532-17.769531 8.800782l19.800781 65.976562zm0 0" fill="#abb1bb"/><path d="m84.800781 160c-16.769531.929688-29.636719 15.226562-28.800781 32-.835938 16.773438 12.03125 31.070312 28.800781 32h19.199219v-64zm0 0" fill="#efbb95"/><path d="m395.199219 160h-19.199219v64h19.199219c16.769531-.929688 29.636719-15.226562 28.800781-32 .835938-16.773438-12.03125-31.070312-28.800781-32zm0 0" fill="#efbb95"/><path d="m152 72c-39.484375 27.296875-63.328125 72.003906-64 120 0 83.949219 68.050781 152 152 152s152-68.050781 152-152c0-54.160156-29.351562-93.078125-72-120" fill="#f7cca9"/><path d="m272 216c0 17.671875-14.328125 32-32 32s-32-14.328125-32-32zm0 0" fill="#e5703e"/><g fill="#915c39"><path d="m168 192c-8.835938 0-16-7.164062-16-16s7.164062-16 16-16 16 7.164062 16 16-7.164062 16-16 16zm0-16"/><path d="m128 176c-4.417969 0-8-3.582031-8-8 .027344-22.082031 17.917969-39.972656 40-40 4.417969 0 8 3.582031 8 8s-3.582031 8-8 8c-13.253906 0-24 10.746094-24 24 0 4.417969-3.582031 8-8 8zm0 0"/><path d="m312 192c-8.835938 0-16-7.164062-16-16s7.164062-16 16-16 16 7.164062 16 16-7.164062 16-16 16zm0-16"/><path d="m352 176c-4.417969 0-8-3.582031-8-8 0-13.253906-10.746094-24-24-24-4.417969 0-8-3.582031-8-8s3.582031-8 8-8c22.082031.027344 39.972656 17.917969 40 40 0 4.417969-3.582031 8-8 8zm0 0"/></g><path d="m176.390625 8h159.609375v16c0 35.347656-28.652344 64-64 64h-88c-22.089844 0-40-17.910156-40-40v-7.609375c0-17.886719 14.503906-32.390625 32.390625-32.390625zm0 0" fill="#434051"/><path d="m360 224c0 13.253906-10.746094 24-24 24s-24-10.746094-24-24 10.746094-24 24-24 24 10.746094 24 24zm0 0" fill="#f4b8b2"/><path d="m168 224c0 13.253906-10.746094 24-24 24s-24-10.746094-24-24 10.746094-24 24-24 24 10.746094 24 24zm0 0" fill="#f4b8b2"/><path d="m248 192h-16c-2.464844 0-4.789062-1.136719-6.308594-3.078125-1.515625-1.941406-2.050781-4.476563-1.453125-6.867187l8-32c1.101563-4.253907 5.425781-6.828126 9.691407-5.757813 4.265624 1.066406 6.867187 5.375 5.832031 9.648437l-5.515625 22.054688h5.753906c4.417969 0 8 3.582031 8 8s-3.582031 8-8 8zm0 0" fill="#915c39"/><path d="m184 176c0 8.835938-7.164062 16-16 16s-16-7.164062-16-16 7.164062-16 16-16 16 7.164062 16 16zm0 0"/><path d="m168 136c0-4.417969-3.582031-8-8-8-22.082031.027344-39.972656 17.917969-40 40 0 4.417969 3.582031 8 8 8s8-3.582031 8-8c0-13.253906 10.746094-24 24-24 4.417969 0 8-3.582031 8-8zm0 0"/><path d="m328 176c0 8.835938-7.164062 16-16 16s-16-7.164062-16-16 7.164062-16 16-16 16 7.164062 16 16zm0 0"/><path d="m320 144c13.253906 0 24 10.746094 24 24 0 4.417969 3.582031 8 8 8s8-3.582031 8-8c-.027344-22.082031-17.917969-39.972656-40-40-4.417969 0-8 3.582031-8 8s3.582031 8 8 8zm0 0"/><path d="m280 216c0-4.417969-3.582031-8-8-8h-64c-4.417969 0-8 3.582031-8 8 0 22.089844 17.910156 40 40 40s40-17.910156 40-40zm-62.632812 8h45.265624c-3.386718 9.597656-12.457031 16.011719-22.632812 16.011719s-19.246094-6.414063-22.632812-16.011719zm0 0"/><path d="m407.839844 384h-63.640625l-16.199219-.40625c-21.71875.074219-39.492188-17.277344-39.9375-38.992188 52.539062-16.71875 92.820312-59.234374 106.671875-112.601562h5.265625c17.648438 0 32-17.945312 32-40s-14.351562-40-32-40h-5.542969c-9.554687-33.023438-31.554687-61.089844-65.738281-83.808594 9.898438-12.601562 15.28125-28.164062 15.28125-44.191406v-16c0-4.417969-3.582031-8-8-8h-159.617188c-22.292968.03125-40.355468 18.097656-40.382812 40.390625v7.609375c0 7.691406 1.859375 15.265625 5.425781 22.078125-26.738281 20.78125-46.265625 49.4375-55.824219 81.921875h-5.601562c-17.648438 0-32 17.945312-32 40s14.351562 40 32 40h5.265625c13.851563 53.367188 54.132813 95.882812 106.671875 112.601562-.472656 21.78125-18.351562 39.148438-40.136719 38.992188l-15.800781.40625h-63.839844c-39.835937.042969-72.1171872 32.324219-72.160156 72.160156v47.839844c0 4.417969 3.582031 8 8 8h464c4.417969 0 8-3.582031 8-8v-47.839844c-.042969-39.835937-32.324219-72.117187-72.160156-72.160156zm-182.800782 45.710938-35.550781 15.199218-12.800781-51.125c1.355469-.664062 2.675781-1.378906 3.960938-2.144531zm74.273438-38.015626c1.296875.769532 2.628906 1.484376 4 2.152344l-12.800781 51.097656-35.550781-15.203124zm100.6875-223.695312c8.671875 0 16 10.992188 16 24s-7.328125 24-16 24h-2c1.269531-7.9375 1.941406-15.960938 2-24-.007812-8.039062-.664062-16.066406-1.96875-24zm-248-127.609375c.019531-13.460937 10.921875-24.367187 24.382812-24.390625h151.617188v8c-.035156 30.914062-25.085938 55.964844-56 56h-88c-17.671875 0-32-14.328125-32-32zm-72 175.609375c-8.671875 0-16-10.992188-16-24s7.328125-24 16-24h2.039062c-1.335937 7.929688-2.015624 15.957031-2.039062 24 .058594 8.039062.730469 16.0625 2 24zm16-24c.371094-42.976562 20.726562-83.332031 55.070312-109.167969 8.882813 8.449219 20.671876 13.164063 32.929688 13.167969h88c16.53125.007812 32.554688-5.699219 45.359375-16.152344 44.191406 28.472656 66.640625 66.191406 66.640625 112.152344 0 79.527344-64.472656 144-144 144s-144-64.472656-144-144zm144 160c10.828125.003906 21.632812-1.089844 32.238281-3.265625 1.058594 12.203125 6.144531 23.710937 14.457031 32.707031l-46.695312 40-46.710938-40.042968c8.320313-8.984376 13.414063-20.484376 14.472657-32.6875 10.605469 2.183593 21.40625 3.285156 32.238281 3.289062zm-224 104.160156c.035156-31 25.160156-56.125 56.160156-56.160156h64l15.839844-.40625c3.164062-.019531 6.324219-.304688 9.441406-.851562l14.796875 59.203124c.570313 2.273438 2.105469 4.183594 4.207031 5.226563 2.101563 1.042969 4.550782 1.113281 6.707032.1875l44.847656-19.230469v51.871094h-216zm448 39.839844h-216v-51.871094l44.847656 19.199219c2.15625.921875 4.605469.855469 6.707032-.1875 2.101562-1.042969 3.636718-2.953125 4.207031-5.230469l14.789062-59.199218c3.054688.527343 6.148438.792968 9.25.800781l16.199219.488281h63.839844c31 .035156 56.125 25.160156 56.160156 56.160156zm0 0"/><path d="m232 192h16c4.417969 0 8-3.582031 8-8s-3.582031-8-8-8h-5.753906l5.515625-22.0625c.765625-2.800781-.042969-5.796875-2.113281-7.828125-2.074219-2.03125-5.082032-2.785156-7.867188-1.960937-2.785156.820312-4.902344 3.085937-5.542969 5.914062l-8 32c-.59375 2.390625-.058593 4.921875 1.457031 6.863281 1.515626 1.9375 3.84375 3.074219 6.304688 3.074219zm0 0"/></svg>