<svg height="512" viewBox="0 0 50 60" width="512" xmlns="http://www.w3.org/2000/svg"><g id="Page-1" fill="none" fill-rule="evenodd"><g id="031---HTTP" fill-rule="nonzero"><path id="Shape" d="m49 10v16.9c.0008576 3.3287112-.5118393 6.6376301-1.52 9.81-2.5 7.87-8.54 13.77-15.26 18.24-1.47.97-4.89 2.95-6.76 3.93-.2857988.1599935-.6342012.1599935-.92 0-1.87-.98-5.29-2.96-6.76-3.93-2.7312368-1.7845779-5.2742714-3.841789-7.59-6.14-2.22830462-2.1731526-4.1282429-4.659242-5.64-7.38-.82828427-1.5037044-1.50815976-3.0844987-2.03-4.72-1.0081607-3.1723699-1.52085761-6.4812888-1.52-9.81v-16.9c-.00203411-.30100811.13234938-.58674641.36549515-.77714879.23314578-.19040239.53997247-.26498574.83450485-.20285121 11.22 2.58 19.67-5.28 22.09-7.72.1864103-.19183364.4425137-.30007247.71-.30007247s.5235897.10823883.71.30007247c2.42 2.44 10.87 10.3 22.09 7.72.4369318-.09725342.8835525.11778616 1.08.52.0816077.13935278.1231349.29854045.12.46z" fill="#24ae5f"/><path id="Shape" d="m48.88 9.54c-9.77 2.87-35 12-44.33 31.89-.82828427-1.5037044-1.50815976-3.0844987-2.03-4.72-1.0081607-3.1723699-1.52085761-6.4812888-1.52-9.81v-16.9c-.00203411-.30100811.13234938-.58674641.36549515-.77714879.23314578-.19040239.53997247-.26498574.83450485-.20285121 11.22 2.58 19.67-5.28 22.09-7.72.1864103-.19183364.4425137-.30007247.71-.30007247s.5235897.10823883.71.30007247c2.42 2.44 10.87 10.3 22.09 7.72.4369318-.09725342.8835525.11778616 1.08.52z" fill="#4fba6f"/><path id="Shape" d="m25 59.999c-.3243298.0002313-.6438123-.0787211-.9307-.23-1.84-.9712-5.3027-2.9654-6.8413-3.9849-8.1601-5.4281-13.4287-11.7431-15.6611-18.7714-1.04081911-3.269893-1.569373-6.6811553-1.5669-10.1127v-16.9c-.00107278-.61132163.27734835-1.18960073.7559-1.57.46666109-.37601325 1.07962029-.51804622 1.6641-.3856 9.76 2.2476 17.4458-3.7031 21.16-7.4487.7890922-.76846659 2.0463384-.76975175 2.837-.0029 3.7168 3.748 11.4033 9.6938 21.1587 7.4526.585639-.13340379 1.2001343.00813931 1.6684.3843.4786342.38046466.7570645.95887319.7559 1.5703v16.9c.0024859 3.4319443-.5262396 6.8435963-1.5674 10.1138-2.2319 7.0273-7.5005 13.3423-15.6592 18.769-1.54 1.02-5.0024 3.0147-6.8427 3.9859-.2868813.15133-.606352.2303824-.9307.2303zm-23.0239-50.0044.0239 16.9054c-.00239336 3.2257942.49438415 6.432534 1.4727 9.5064 2.0918 6.5844 7.0918 12.5429 14.8613 17.7114 1.45.96 4.8794 2.9375 6.6689 3.8823 1.7837-.9448 5.2134-2.9224 6.6646-3.8833 7.768-5.1675 12.768-11.126 14.8594-17.7095.9785731-3.0741251 1.4754874-6.2811808 1.4731-9.5073v-16.9c-.0003123-.00335945-.0021095-.00640359-.0049-.0083-10.6689 2.4624-18.9888-3.9478-22.9951-7.9878-4.0059 4.0405-12.3213 10.4502-23.0239 7.9907z" fill="#4c8056"/><g fill="#ecf0f1"><path id="Shape" d="m6 27c-.55228475 0-1-.4477153-1-1v-12c0-.5522847.44771525-1 1-1s1 .4477153 1 1v12c0 .5522847-.44771525 1-1 1z"/><path id="Shape" d="m13 27c-.5522847 0-1-.4477153-1-1v-12c0-.5522847.4477153-1 1-1s1 .4477153 1 1v12c0 .5522847-.4477153 1-1 1z"/><path id="Shape" d="m13 21h-7c-.55228475 0-1-.4477153-1-1s.44771525-1 1-1h7c.5522847 0 1 .4477153 1 1s-.4477153 1-1 1z"/><path id="Shape" d="m20 27c-.5522847 0-1-.4477153-1-1v-12c0-.5522847.4477153-1 1-1s1 .4477153 1 1v12c0 .5522847-.4477153 1-1 1z"/><path id="Shape" d="m23 15h-6c-.5522847 0-1-.4477153-1-1s.4477153-1 1-1h6c.5522847 0 1 .4477153 1 1s-.4477153 1-1 1z"/><path id="Shape" d="m30 27c-.5522847 0-1-.4477153-1-1v-12c0-.5522847.4477153-1 1-1s1 .4477153 1 1v12c0 .5522847-.4477153 1-1 1z"/><path id="Shape" d="m33 15h-6c-.5522847 0-1-.4477153-1-1s.4477153-1 1-1h6c.5522847 0 1 .4477153 1 1s-.4477153 1-1 1z"/><path id="Shape" d="m37 27c-.5522847 0-1-.4477153-1-1v-12c0-.5522847.4477153-1 1-1s1 .4477153 1 1v12c0 .5522847-.4477153 1-1 1z"/><path id="Shape" d="m41 21h-4c-.5522847 0-1-.4477153-1-1v-6c0-.5522847.4477153-1 1-1h4c2.209139 0 4 1.790861 4 4s-1.790861 4-4 4zm-3-2h3c1.1045695 0 2-.8954305 2-2s-.8954305-2-2-2h-3z"/></g><path id="Shape" d="m30 39h-10c-.5522847 0-1-.4477153-1-1v-3c0-3.3137085 2.6862915-6 6-6s6 2.6862915 6 6v3c0 .5522847-.4477153 1-1 1zm-9-2h8v-2c0-2.209139-1.790861-4-4-4s-4 1.790861-4 4z" fill="#d1d4d1"/><rect id="Rectangle-path" fill="#f0c419" height="12" rx="1" width="14" x="18" y="37"/><path id="Shape" d="m25 46c-.5522847 0-1-.4477153-1-1v-3c0-.5522847.4477153-1 1-1s1 .4477153 1 1v3c0 .5522847-.4477153 1-1 1z" fill="#393f4a"/><path id="Shape" d="m26 43h-2c-.5522847 0-1-.4477153-1-1s.4477153-1 1-1h2c.5522847 0 1 .4477153 1 1s-.4477153 1-1 1z" fill="#393f4a"/></g></g></svg>