<svg id="Capa_1" enable-background="new 0 0 512.009 512.009" height="512" viewBox="0 0 512.009 512.009" width="512" xmlns="http://www.w3.org/2000/svg"><g><path d="m414.536 211.722.369-13.406-17.86-9.765-11.095 7.541-58.92 107.758c-1.988 3.636-5.802 5.898-9.946 5.898h-179.356c-6.031 0-11.85 2.231-16.334 6.264l-35.067 31.535-19.023-42.161-9.787-8.138-18.616 8.4v12.554l25.781 59.094c3.664 9.364 15.171 12.822 23.391 7l28.373-20.091c5.001-3.541 11.915.035 11.915 6.163v115.302c0 10.401 8.432 18.833 18.833 18.833h162.233c10.401 0 18.833-8.432 18.833-18.833v-51.584-29.986-20.7c0-8.551 2.15-16.964 6.252-24.466l80.395-147.033c-.124-.061-.249-.112-.371-.179z" fill="#75cef9"/><g fill="#6bbef6"><path d="m414.906 198.317-17.86-9.765-11.095 7.541-7.885 14.421 3.461 2.425c5.943 4.164 7.806 12.131 4.324 18.499l-69.713 127.497c-4.102 7.502-6.252 15.916-6.252 24.466v20.699 29.987 51.584c0 10.401-8.432 18.833-18.833 18.833h18.373c10.401 0 18.833-8.432 18.833-18.833v-51.584-29.987-20.7c0-8.551 2.15-16.964 6.252-24.466l80.395-147.033c-.123-.061-.248-.112-.369-.178z"/><path d="m57.516 297.249-18.616 8.4v12.554l6.93 15.885 1.021-.461c7.075-3.192 15.404-.132 18.729 6.882l4.235 8.933c2.331 4.917 8.74 6.202 12.786 2.563l4.957-4.458-20.255-42.161z"/></g><path d="m293.517 145.427h-27.834c-5.879 0-10.931 3.493-13.227 8.511v-1.693c0-10.053-8.15-18.203-18.203-18.203h-61.319c-16.965 0-30.717 13.753-30.717 30.717v55.993c0 5.316 4.31 9.626 9.626 9.626h99.288 1.325 46.849c8.338 0 15.097-6.759 15.097-15.097v-48.97c0-11.534-9.351-20.884-20.885-20.884z" fill="#544f57"/><g><path d="m293.517 145.427h-20.264c11.534 0 20.885 9.35 20.885 20.885v48.97c0 8.338-6.759 15.097-15.097 15.097h20.264c8.338 0 15.097-6.759 15.097-15.097v-48.97c0-11.535-9.351-20.885-20.885-20.885z" fill="#454045"/></g><path d="m228.309 367.234c-14.643 0-26.514-11.871-26.514-26.514v-33.972h53.029v33.972c0 14.644-11.871 26.514-26.515 26.514z" fill="#f1b986"/><path d="m247.411 189.661s-29.201 38.563-87.638 21.638v76.803c0 15.821 12.826 28.647 28.647 28.647h79.78c15.821 0 28.647-12.826 28.647-28.647v-78.722c-37.908 9.112-49.436-19.719-49.436-19.719z" fill="#f1d0a5"/><path d="m292.841 210.21c-34.678 6.211-45.325-20.485-45.43-20.549 0 0-29.201 38.563-87.638 21.638v14.719c41.572 12.041 66.677-.249 77.706-8.347 3.808-2.796 8.961-2.814 12.759-.004 4.237 3.135 10.797 6.629 20.066 8.036 5.186.787 8.989 5.303 8.989 10.548v51.851c0 15.821-12.826 28.647-28.647 28.647h17.555c15.821 0 28.647-12.826 28.647-28.647v-78.722c-1.143.274-2.552.57-4.007.83z" fill="#f1b986"/><path d="m393.737 50.857-57.935 84.794-59.759-41.871 57.826-84.634c1.693-2.478 5.462-2.079 6.598.698l12.859 31.419c.559 1.365 1.863 2.279 3.337 2.338l34.114 1.366c2.958.118 4.63 3.446 2.96 5.89z" fill="#da4a54"/><g><path d="m390.777 44.967-15.826-.634-54.927 80.262 15.779 11.056 57.935-84.794c1.67-2.444-.003-5.772-2.961-5.89z" fill="#c32430"/></g><path d="m440.345 194.279-14.228 20.307c-2.896 4.134-8.596 5.137-12.73 2.241l-30.362-21.273c-4.134-2.896-5.137-8.596-2.241-12.73l14.228-20.307c2.896-4.134 8.596-5.137 12.73-2.241l30.362 21.273c4.134 2.897 5.137 8.596 2.241 12.73z" fill="#f1d0a5"/><path d="m60.341 281.672-10.211-22.632c-3.341-7.404-12.051-10.698-19.455-7.357l-14.505 6.545c-7.404 3.341-10.698 12.051-7.357 19.455l16.008 35.478c2.359 5.228 8.51 7.554 13.738 5.195l36.379-16.414c6.162-2.78 8.903-10.029 6.123-16.19-2.78-6.162-10.029-8.903-16.19-6.123z" fill="#f1d0a5"/><g><path d="m201.795 235.969c-4.143 0-7.5 3.358-7.5 7.5v9.735c0 4.142 3.357 7.5 7.5 7.5s7.5-3.358 7.5-7.5v-9.735c0-4.142-3.357-7.5-7.5-7.5z"/><path d="m254.823 235.969c-4.143 0-7.5 3.358-7.5 7.5v9.735c0 4.142 3.357 7.5 7.5 7.5s7.5-3.358 7.5-7.5v-9.735c0-4.142-3.357-7.5-7.5-7.5z"/><path d="m508.856 250.354-65.824-46.84 3.455-4.931c5.265-7.514 3.435-17.911-4.079-23.176l-30.362-21.272c-3.64-2.55-8.054-3.531-12.433-2.761-4.377.771-8.192 3.2-10.743 6.84l-3.159 4.509-39.916-28.404 16.889-24.72c2.337-3.42 1.459-8.087-1.961-10.423-3.423-2.337-8.088-1.458-10.424 1.961l-16.409 24.017-47.474-33.263 49.734-72.792 10.233 25.005c1.667 4.072 5.584 6.816 9.979 6.991l27.379 1.096-16.411 24.021c-2.337 3.42-1.459 8.087 1.961 10.423 3.423 2.338 8.088 1.458 10.424-1.961l20.215-29.586c2.311-3.382 2.604-7.756.765-11.416-1.84-3.66-5.524-6.036-9.618-6.2l-31.718-1.27-11.95-29.198c-1.572-3.842-5.114-6.5-9.242-6.938-4.13-.431-8.148 1.421-10.491 4.849l-53.562 78.395-3.522-2.506c-3.377-2.402-8.058-1.611-10.459 1.762-2.402 3.375-1.613 8.058 1.762 10.459l115.208 81.983-2.46 3.512c-4.488 6.405-3.804 14.895 1.145 20.525l-55.338 101.208c-.673 1.23-1.962 1.995-3.365 1.995h-15.624c1.856-4.347 2.886-9.129 2.886-14.146v-50.797c10.04-2.298 17.555-11.296 17.555-22.023v-48.97c0-15.651-12.733-28.385-28.385-28.385h-27.834c-3.13 0-6.164.671-8.929 1.902-4.386-7.916-12.828-13.287-22.501-13.287h-26.188c-4.143 0-7.5 3.358-7.5 7.5s3.357 7.5 7.5 7.5h26.188c5.901 0 10.703 4.801 10.703 10.703v1.693c0 3.527 2.457 6.577 5.903 7.328 3.443.748 6.948-1.001 8.417-4.208 1.148-2.51 3.663-4.131 6.406-4.131h27.834c7.381 0 13.385 6.004 13.385 13.385v48.97c0 2.253-.992 4.274-2.555 5.667v-11.569c0-2.297-1.053-4.468-2.857-5.891s-4.163-1.938-6.396-1.402c-13.082 3.146-23.852 1.587-32.01-4.628-6.104-4.651-8.63-10.401-8.73-10.634-1.01-2.473-3.271-4.209-5.918-4.579-2.673-.37-5.339.729-6.983 2.859-1.084 1.403-27.126 34.186-79.593 18.989-2.266-.655-4.707-.209-6.593 1.208-1.885 1.417-2.994 3.637-2.994 5.996v11.58h-.43c-1.172 0-2.126-.954-2.126-2.126v-55.993c0-12.802 10.415-23.217 23.218-23.217h5.143c4.143 0 7.5-3.358 7.5-7.5s-3.357-7.5-7.5-7.5h-5.143c-21.073 0-38.218 17.144-38.218 38.217v55.993c0 9.443 7.683 17.126 17.126 17.126h.43v50.223c0 5.018 1.03 9.799 2.886 14.146h-17.431c-7.896 0-15.479 2.908-21.349 8.188l-27.438 24.674-11.718-25.97.8-.361c9.921-4.477 14.351-16.19 9.873-26.111-2.168-4.806-6.078-8.479-11.01-10.345-4.135-1.564-8.569-1.7-12.729-.425l-7.192-15.942c-5.036-11.161-18.214-16.144-29.376-11.108l-14.504 6.545c-5.407 2.439-9.54 6.838-11.639 12.387-2.098 5.548-1.91 11.582.53 16.988l16.008 35.479c2.982 6.608 9.509 10.528 16.33 10.528.046 0 .092-.007.138-.007l23.302 53.411c2.616 6.556 7.991 11.472 14.769 13.5 6.824 2.044 14.072.854 19.882-3.26l28.373-20.114c.027.003.082.031.081.064v115.302c0 14.521 11.812 26.334 26.333 26.334h162.233c14.521 0 26.333-11.814 26.333-26.334v-51.583c0-4.143-3.357-7.5-7.5-7.5s-7.5 3.357-7.5 7.5v51.583c0 6.25-5.084 11.334-11.333 11.334h-162.232c-6.249 0-11.333-5.084-11.333-11.334v-115.302c0-5.65-3.117-10.772-8.136-13.368-5.02-2.596-11.001-2.18-15.613 1.085l-28.374 20.092c-2.02 1.429-4.538 1.843-6.912 1.131-2.378-.711-4.258-2.44-5.159-4.744-.035-.089-.071-.178-.11-.266l-22.819-52.305 14.816-6.685 15.939 35.325c2.081 4.611 8.068 5.895 11.851 2.492l35.068-31.536c3.112-2.799 7.132-4.341 11.318-4.341h29.345c5.986 4.396 13.366 7 21.346 7h5.876v16.472c0 18.756 15.259 34.015 34.015 34.015 18.755 0 34.014-15.259 34.014-34.015v-16.472h5.876c7.98 0 15.36-2.604 21.346-7h27.539c6.89 0 13.223-3.755 16.526-9.8l54.302-99.312 14.824 10.387-74.807 136.814c-4.691 8.581-7.171 18.285-7.171 28.063v20.7c0 4.143 3.357 7.5 7.5 7.5s7.5-3.357 7.5-7.5v-20.7c0-7.271 1.844-14.487 5.332-20.868l74.793-136.788c.904.15 1.815.232 2.725.232 5.248 0 10.418-2.471 13.651-7.085l2.165-3.091 65.734 46.777c3.369 2.396 8.052 1.62 10.459-1.763 2.403-3.376 1.613-8.058-1.762-10.46zm-493.207 24.244c-.791-1.755-.853-3.713-.172-5.513.682-1.801 2.022-3.229 3.777-4.021l14.505-6.545c3.629-1.637 7.903-.008 9.533 3.604l10.211 22.633c.818 1.813 2.323 3.228 4.185 3.932 1.859.702 3.925.64 5.737-.18 3.59-1.342 5.347-3.222 8.154-2.156 2.444.923 3.687 3.654 2.757 6.109-1.121 2.97-3.811 2.891-10.106 6.084-.004.002-.009.003-.013.005s-.008.004-.012.006l-28.73 12.962c-1.448.656-3.163.007-3.818-1.443zm231.674 66.122c0 10.484-8.529 19.015-19.014 19.015s-19.015-8.53-19.015-19.015v-16.472h38.028v16.472zm-58.904-31.472c-11.66 0-21.146-9.486-21.146-21.146v-67.231c27.745 5.655 48.598-.642 61.668-7.377 7.37-3.797 13.079-8.115 17.122-11.705 7.623 9.441 21.731 18.784 43.284 16.499v69.814c0 11.66-9.486 21.146-21.147 21.146zm229.271-98.563-30.361-21.273c-.46-.322-.62-.753-.674-1.059s-.05-.765.272-1.225l14.228-20.307c.511-.729 1.528-.932 2.283-.401l30.362 21.272c.46.322.62.753.674 1.059s.05.765-.272 1.225l-14.228 20.307c-.518.74-1.542.919-2.284.402z"/></g></g></svg>