<svg id="Capa_1" enable-background="new 0 0 512 512" height="512" viewBox="0 0 512 512" width="512" xmlns="http://www.w3.org/2000/svg"><g><g><path d="m489.848 216.21c-59.509-69.863-124.195-134.549-194.058-194.058-22.935-19.536-56.644-19.536-79.58 0-69.862 59.509-134.548 124.195-194.057 194.058-19.536 22.935-19.536 56.644 0 79.58 59.509 69.863 124.195 134.549 194.058 194.058 22.935 19.536 56.644 19.536 79.58 0 69.863-59.509 134.549-124.195 194.058-194.058 19.535-22.935 19.535-56.645-.001-79.58z" fill="#655e66"/><path d="m238.355 489.85c8.47 7.21 18.4 11.76 28.72 13.64-17.64 3.229-36.39-1.32-50.86-13.64-69.87-59.51-134.55-124.2-194.06-194.06-19.54-22.94-19.54-56.64 0-79.58 59.51-69.86 124.19-134.55 194.06-194.06 14.47-12.32 33.22-16.87 50.86-13.64-10.32 1.88-20.25 6.43-28.72 13.64-69.86 59.51-134.55 124.2-194.06 194.06-19.53 22.94-19.53 56.64 0 79.58 59.51 69.86 124.2 134.55 194.06 194.06z" fill="#535057"/><path d="m256 467.5c-5.782 0-11.392-2.066-15.797-5.819-68.041-57.957-131.927-121.843-189.883-189.884-7.798-9.154-7.798-22.441 0-31.594 57.957-68.041 121.843-131.927 189.884-189.884 4.405-3.753 10.015-5.819 15.796-5.819s11.392 2.066 15.797 5.819c68.042 57.957 131.927 121.843 189.884 189.884 7.798 9.154 7.798 22.441 0 31.594-57.957 68.041-121.843 131.927-189.884 189.884-4.405 3.753-10.015 5.819-15.797 5.819z" fill="#ffef4a"/></g><path d="m256 512c-15.853 0-31.705-5.505-44.637-16.515-69.818-59.474-135.373-125.029-194.847-194.846-22.021-25.866-22.021-63.412-.001-89.277l.206-.241c1.513-1.773 3.026-3.546 4.559-5.319 2.707-3.133 7.442-3.478 10.575-.771s3.478 7.442.771 10.575c-1.512 1.749-3.005 3.5-4.499 5.249l-.2.234c-17.219 20.225-17.219 49.595.006 69.827 58.956 69.209 123.941 134.194 193.152 193.151 20.231 17.224 49.601 17.224 69.832-.001 69.209-58.956 134.194-123.941 193.151-193.152 17.224-20.23 17.224-49.6-.001-69.832-58.955-69.208-123.941-134.194-193.152-193.151-20.23-17.223-49.6-17.223-69.832.001-59.895 51.028-116.737 106.658-168.945 165.343-2.752 3.093-7.491 3.371-10.585.618-3.094-2.752-3.371-7.491-.618-10.585 52.665-59.2 110.004-115.316 170.425-166.792 25.867-22.021 63.413-22.021 89.277-.002 69.818 59.475 135.373 125.03 194.846 194.846 22.021 25.866 22.021 63.412.001 89.277-59.475 69.818-125.03 135.373-194.846 194.846-12.931 11.012-28.785 16.517-44.638 16.517z"/><path d="m256 474.931c-7.56 0-14.895-2.702-20.654-7.607-68.323-58.197-132.473-122.347-190.67-190.67-10.195-11.967-10.195-29.34 0-41.308 58.197-68.322 122.348-132.473 190.67-190.669 5.759-4.906 13.094-7.607 20.654-7.607s14.895 2.702 20.654 7.607c68.323 58.197 132.473 122.347 190.67 190.67 10.195 11.967 10.195 29.34 0 41.308-58.197 68.322-122.348 132.473-190.67 190.669-5.759 4.905-13.094 7.607-20.654 7.607zm0-422.867c-4 0-7.882 1.43-10.931 4.028-67.716 57.68-131.297 121.262-188.978 188.978-5.395 6.333-5.395 15.527 0 21.86 57.68 67.717 121.261 131.298 188.978 188.978 3.049 2.597 6.93 4.027 10.93 4.027s7.882-1.43 10.931-4.028c67.716-57.68 131.297-121.262 188.978-188.978 5.395-6.333 5.395-15.527 0-21.86-57.68-67.717-121.261-131.298-188.978-188.978-3.048-2.596-6.93-4.027-10.93-4.027z"/><g><path d="m248.975 140.992c4.683-.34 9.367-.34 14.05 0 11.571.841 20.684 10.257 21.051 21.853 1.105 34.89 1.105 69.779 0 104.669-.367 11.596-9.48 21.012-21.051 21.853-4.683.34-9.367.34-14.05 0-11.571-.841-20.684-10.257-21.051-21.853-1.105-34.89-1.105-69.779 0-104.669.368-11.596 9.48-21.012 21.051-21.853z" fill="#655e66"/><path d="m249.311 312.527c4.46-.122 8.92-.122 13.379 0 12.095.331 21.778 10.04 22.116 22.135.134 4.791.134 9.583 0 14.374-.337 12.095-10.02 21.805-22.116 22.135-4.46.122-8.92.122-13.379 0-12.095-.331-21.778-10.04-22.115-22.135-.134-4.791-.134-9.583 0-14.374.336-12.095 10.019-21.804 22.115-22.135z" fill="#655e66"/><path d="m256.001 297.124c-2.529 0-5.056-.091-7.564-.273-15.477-1.123-27.52-13.634-28.013-29.102-1.1-34.888-1.1-70.26 0-105.135.494-15.471 12.537-27.981 28.014-29.104 5.015-.364 10.107-.364 15.135 0 15.471 1.123 27.51 13.634 28.003 29.101.091 2.76.171 5.528.232 8.294.091 4.141-3.192 7.572-7.333 7.663-4.129.115-7.572-3.192-7.663-7.333-.06-2.713-.139-5.426-.228-8.139-.248-7.775-6.309-14.06-14.097-14.625-4.306-.313-8.667-.313-12.963 0-7.795.565-13.86 6.85-14.108 14.619-1.09 34.559-1.09 69.612 0 104.184.248 7.766 6.313 14.051 14.107 14.616 4.297.313 8.659.313 12.965 0 7.788-.565 13.848-6.851 14.096-14.619.69-21.872.945-44.134.756-66.166-.036-4.142 3.293-7.529 7.435-7.564h.066c4.112 0 7.463 3.315 7.498 7.436.191 22.232-.066 44.697-.763 66.771-.493 15.469-12.532 27.98-28.003 29.104-2.513.181-5.043.272-7.572.272z"/><path d="m256 378.763c-2.303 0-4.607-.032-6.895-.094-16.042-.438-28.96-13.363-29.407-29.423-.137-4.907-.137-9.884 0-14.792.447-16.06 13.365-28.984 29.407-29.423 4.576-.125 9.215-.125 13.79 0 16.042.438 28.959 13.363 29.408 29.423.137 4.908.137 9.884 0 14.791-.448 16.061-13.366 28.985-29.408 29.424-2.288.062-4.591.094-6.895.094zm0-58.827c-2.167 0-4.333.03-6.484.088-8.086.221-14.598 6.743-14.823 14.847-.129 4.63-.129 9.325 0 13.955.226 8.105 6.737 14.626 14.823 14.848 4.303.118 8.667.118 12.969 0 8.086-.221 14.598-6.743 14.824-14.847.129-4.63.129-9.326 0-13.956-.226-8.104-6.737-14.625-14.824-14.847-2.152-.058-4.319-.088-6.485-.088zm-6.69-7.409h.01z"/></g></g></svg>