<svg height="512" viewBox="0 0 60 56" width="512" xmlns="http://www.w3.org/2000/svg"><g id="Page-1" fill="none" fill-rule="evenodd"><g id="055---Refresh-Page" fill-rule="nonzero"><path id="Shape" d="m59 5v4h-58v-4c0-2.209139 1.790861-4 4-4h50c2.209139 0 4 1.790861 4 4z" fill="#607d8b"/><path id="Shape" d="m55 1h-3c2.209139 0 4 1.790861 4 4v4h3v-4c0-2.209139-1.790861-4-4-4z" fill="#37474f"/><path id="Shape" d="m59 9v34c0 2.209139-1.790861 4-4 4h-50c-2.209139 0-4-1.790861-4-4v-34z" fill="#f5f5f5"/><path id="Shape" d="m56 9v34c0 2.209139-1.790861 4-4 4h3c2.209139 0 4-1.790861 4-4v-34z" fill="#cfd8dc"/><path id="Shape" d="m50.96 40h-2.39c-1.5785442 7.3243351-7.3141048 13.0370621-14.6446784 14.5863772-7.3305737 1.5493151-14.8871582-1.35412-19.2943216-7.4133772-.5364473-.7394543-.5064535-1.7477408.073-2.454.4006253-.4802816 1.001905-.7468239 1.6268147-.7211534s1.202302.3406311 1.5621853.8521534c3.3942243 4.6442244 9.1454176 6.9383118 14.8042482 5.9052509s10.2284554-5.211289 11.7627518-10.7552509h-1.42c-.4144761-.0185738-.7826239-.2704236-.9501432-.6499927-.1675193-.379569-.1054693-.8212827.1601432-1.1400073l2.7-3.29v-.01l1.261-1.532c.1941298-.236164.483788-.373021.7895-.373021s.5953702.136857.7895.373021l3.96 4.83c.2668228.3186826.329599.7612057.1619362 1.1415243s-.5366902.6324819-.9519362.6504757z" fill="#ef314c"/><path id="Shape" d="m45.671 27.827-.005.006c-.4070633.4886203-1.0222464.7545194-1.6570565.7162256-.6348101-.0382939-1.2135688-.3762157-1.5589435-.9102256-3.3708608-5.020281-9.4265437-7.5255825-15.3589736-6.3541734s-10.581355 5.7904271-11.7910264 11.7151734h1.66c.4144761.0185738.7826239.2704236.9501432.6499927.1675193.379569.1054693.8212827-.1601432 1.1400073l-3.96 4.83c-.1941227.2365268-.4840122.3736297-.79.3736297s-.5958773-.1371029-.79-.3736297l-3.96-4.83c-.26561252-.3187246-.32766249-.7604383-.16014318-1.1400073.16751931-.3795691.53566711-.6314189.95014318-.6499927h2.2c1.2305822-7.7162349 7.0620013-13.8910663 14.6952822-15.5606877s15.5100961 1.506819 19.8497178 8.0046877c.4917877.7325239.4454681 1.700767-.114 2.383z" fill="#ef314c"/><circle id="Oval" cx="5" cy="5" fill="#f44335" r="1"/><circle id="Oval" cx="9" cy="5" fill="#ffdc00" r="1"/><circle id="Oval" cx="13" cy="5" fill="#60a917" r="1"/><g fill="#000"><path id="Shape" d="m27 6h6c.5522847 0 1-.44771525 1-1s-.4477153-1-1-1h-6c-.5522847 0-1 .44771525-1 1s.4477153 1 1 1z"/><path id="Shape" d="m44 6h11c.5522847 0 1-.44771525 1-1s-.4477153-1-1-1h-11c-.5522847 0-1 .44771525-1 1s.4477153 1 1 1z"/><path id="Shape" d="m55 0h-50c-2.76005315.00330612-4.99669388 2.23994685-5 5v38c.00330612 2.7600532 2.23994685 4.9966939 5 5h9.008c3.767874 5.0353959 9.688955 8.0000202 15.978 8.0000202s12.210126-2.9646243 15.978-8.0000202h9.036c2.7600532-.0033061 4.9966939-2.2399468 5-5v-38c-.0033061-2.76005315-2.2399468-4.99669388-5-5zm-50 2h50c1.6568542 0 3 1.34314575 3 3v3h-56v-3c0-1.65685425 1.34314575-3 3-3zm25 52c-5.757227-.0141008-11.1639567-2.767779-14.561-7.416-.2543959-.3409632-.2652282-.8055508-.027-1.158.023-.024.047-.05.068-.075.1824959-.2283489.4596943-.360313.752-.358h.026c.3311398.0109956.6383.1754797.831.445.5994086.8165928 1.2754816 1.5740357 2.019 2.262l.018.016c6.1206237 5.7098772 15.6152254 5.7124977 21.739.006.012-.011.024-.022.035-.034 2.1666157-2.0065897 3.7329013-4.5758658 4.524-7.421.0834198-.3010911.0213214-.6238676-.1678612-.8725132-.1891827-.2486456-.4837053-.3945816-.7961388-.3944868h-1.422l-.015-.157 2.7-3.29c.0205256-.02485.039559-.0508958.057-.078l1.237-1.463 3.96 4.83.773-.634-.782.79h-2.4c-.4713972.0004317-.8784781.330013-.977.791-1.808347 8.2743474-9.1214005 14.1822436-17.591 14.211zm-7.144-6h14.332c-4.4052127 2.6666417-9.9267873 2.6666417-14.332 0zm32.144-2h-7.7c.915329-1.5637249 1.6105497-3.2462532 2.066-5h1.6c.7864288-.0000013 1.5011444-.4570914 1.831-1.171.3589638-.7387855.2542556-1.6190378-.268-2.253l-3.96-4.83c-.3822619-.4687065-.9551779-.7404744-1.56-.74-.6042851-.00076-1.1771084.269322-1.561.736l-1.261 1.532c-.023.029-.045.058-.065.089l-2.638 3.216c-.519564.6344639-.6233696 1.5129091-.266 2.251.3289699.7104022 1.0391336 1.1664349 1.822 1.17h.04c-.7250925 1.8858962-1.8510304 3.5918627-3.3 5h-19.531c-.5639952-.5368267-1.0821323-1.1198563-1.549-1.743-.5558917-.770413-1.4393163-1.2374558-2.389-1.263-.8848894-.0310906-1.7356778.3429471-2.311 1.016-.023.023-.047.049-.068.074-.4424055.5401896-.6825318 1.2177773-.679 1.916h-8.253c-1.65685425 0-3-1.3431458-3-3v-33h56v33c0 1.6568542-1.3431458 3-3 3z"/><path id="Shape" d="m30 16c-9.5201057-.0434431-17.7366389 6.663931-19.6 16h-1.36c-.7861247.0000701-1.50065622.4566522-1.831 1.17-.35759635.7393529-.25299332 1.6191112.268 2.254l3.96 4.831c.3840666.4679663.9576079.7392237 1.563.7392237s1.1789334-.2712574 1.563-.7392237l3.962-4.833c.519564-.6344639.6233696-1.5129091.266-2.251-.3300512-.713738-1.0446441-1.1707495-1.831-1.171h-.38c1.5490669-5.1939175 5.9569084-9.0270712 11.3155578-9.8402523s10.7052328 1.5397277 13.7254422 6.0402523c.5349127.8067639 1.42299 1.3095122 2.39 1.353.933348.0487254 1.8337835-.3515094 2.423-1.077l.005-.006.005-.007c.8423092-1.0206005.9127086-2.4737573.173-3.571-3.6993609-5.5608689-9.9380419-8.8992784-16.617-8.892zm14.893 11.2c-.1894589.239703-.4839858.3718481-.789.354-.3350571-.016705-.6418191-.1929537-.825-.474-3.5960193-5.3542938-10.0552852-8.0259046-16.3828256-6.7760848-6.3275403 1.2498198-11.2859557 6.1766582-12.5761744 12.4960848-.0600645.294255.0152993.599925.2052638.8325346s.4744135.3675267.7747362.3674654h1.662l.015.158-3.994 4.83-3.96-4.83-.773.634.79-.792h2.2c.4918278.0001974.9107831-.3572715.988-.843 1.1655464-7.3099099 6.6898919-13.1596121 13.9212219-14.7411134 7.2313301-1.5815013 14.6932158 1.4280953 18.8037781 7.5841134.2439613.3671985.2212857.8502691-.056 1.193l.774.634z"/><path id="Shape" d="m5 15h2c.55228475 0 1-.4477153 1-1s-.44771525-1-1-1h-2c-.55228475 0-1 .4477153-1 1s.44771525 1 1 1z"/><path id="Shape" d="m11 15h9c.5522847 0 1-.4477153 1-1s-.4477153-1-1-1h-9c-.5522847 0-1 .4477153-1 1s.4477153 1 1 1z"/><path id="Shape" d="m14 18c0-.5522847-.4477153-1-1-1h-8c-.55228475 0-1 .4477153-1 1s.44771525 1 1 1h8c.5522847 0 1-.4477153 1-1z"/><path id="Shape" d="m55 13h-2c-.5522847 0-1 .4477153-1 1s.4477153 1 1 1h2c.5522847 0 1-.4477153 1-1s-.4477153-1-1-1z"/><path id="Shape" d="m40 15h9c.5522847 0 1-.4477153 1-1s-.4477153-1-1-1h-9c-.5522847 0-1 .4477153-1 1s.4477153 1 1 1z"/><path id="Shape" d="m55 17h-8c-.5522847 0-1 .4477153-1 1s.4477153 1 1 1h8c.5522847 0 1-.4477153 1-1s-.4477153-1-1-1z"/></g></g></g></svg>