<svg height="512" viewBox="0 0 64 64" width="512" xmlns="http://www.w3.org/2000/svg"><path d="m42.99 49a9.964 9.964 0 0 0 -7.01-9.19l-.18-.06-4.18-1.3-2.41-.76-1.21 6.31-5-3-5 3-1.21-6.31-6.77 2.12a9.989 9.989 0 0 0 -7.02 9.54v11.65h40v-11.65c0-.12 0-.24-.01-.35z" fill="#ff6243"/><path d="m55 40.34v15.66a1 1 0 0 1 -1 1h-18a1 1 0 0 1 -1-1v-15.66l.8-.59 9.2-6.75z" fill="#c6c5ca"/><path d="m55 30v6.06l-4-2.82v-3.24z" fill="#898890"/><path d="m48 49h4v4h-4z" fill="#e6e7e8"/><circle cx="45" cy="42" fill="#e6e7e8" r="3"/><path d="m45 49v8h-2v-7.65c0-.12 0-.24-.01-.35z" fill="#898890"/><path d="m43 49.35v7.65h-4v-8h3.99c.01.11.01.23.01.35z" fill="#898890"/><path d="m60.58 40-5.58-3.94-4-2.82-6-4.24-13.38 9.45-2.2 1.55a1.794 1.794 0 0 0 -.46 2.45 1.82 1.82 0 0 0 1.5.79 1.8 1.8 0 0 0 1.05-.34l3.49-2.56.8-.59 9.2-6.75 10 7.34 3.49 2.56a1.787 1.787 0 1 0 2.09-2.9z" fill="#ff5023"/><path d="m55 40.34v2l-10-7.34-9.2 6.75-.8.59v-2l.8-.59 9.2-6.75z" fill="#acabb1"/><path d="m34 17a2 2 0 1 1 -1 3.73v-3.46a2 2 0 0 1 1-.27z" fill="#ffb655"/><path d="m33 16.75v6.25a10 10 0 0 1 -20 0v-6.25a1.549 1.549 0 0 0 .48-.02l8.09-1.47a8.083 8.083 0 0 1 2.86 0l8.09 1.47a1.549 1.549 0 0 0 .48.02z" fill="#ffc477"/><path d="m33 6.64v5.9l-4.76-.74 1.49-7.45 1.66.33a2 2 0 0 1 1.61 1.96z" fill="#5aaae7"/><path d="m29.73 4.35-1.49 7.45-3.72-.57a10.325 10.325 0 0 0 -3.04 0l-3.72.57-1.49-7.45 5.16-1.04a8.291 8.291 0 0 1 3.14 0z" fill="#1e81ce"/><path d="m29.21 37.69-1.21 6.31-5-3 4-4z" fill="#e6e7e8"/><path d="m27 32.16v4.84l-4 4-4-4v-4.84a9.944 9.944 0 0 0 8 0z" fill="#ffc477"/><path d="m23 41-5 3-1.21-6.31 2.21-.69z" fill="#e6e7e8"/><path d="m16.27 4.35 1.49 7.45-4.76.74v-5.9a2 2 0 0 1 1.61-1.96z" fill="#5aaae7"/><path d="m13 17.27v3.46a2 2 0 1 1 0-3.46z" fill="#ffb655"/><path d="m33.29 12.58-.29-.04-4.76-.74-3.72-.57a10.325 10.325 0 0 0 -3.04 0l-3.72.57-4.76.74-.29.04a2 2 0 0 0 -1.48 2.87l.1.21a2.013 2.013 0 0 0 1.67 1.09 1.549 1.549 0 0 0 .48-.02l8.09-1.47a8.083 8.083 0 0 1 2.86 0l8.09 1.47a1.549 1.549 0 0 0 .48.02 2.013 2.013 0 0 0 1.67-1.09l.1-.21a2 2 0 0 0 -1.48-2.87z" fill="#3d9ae2"/><path d="m33 16.75v2a1.549 1.549 0 0 1 -.48-.02l-8.09-1.47a8.083 8.083 0 0 0 -2.86 0l-8.09 1.47a1.549 1.549 0 0 1 -.48.02v-2a1.549 1.549 0 0 0 .48-.02l8.09-1.47a8.083 8.083 0 0 1 2.86 0l8.09 1.47a1.549 1.549 0 0 0 .48.02z" fill="#ffb655"/><path d="m27 32.16v2a9.944 9.944 0 0 1 -8 0v-2a9.944 9.944 0 0 0 8 0z" fill="#ffb655"/><path d="m61.157 39.18-5.157-3.64v-5.54a1 1 0 0 0 -1-1h-4a1 1 0 0 0 -1 1v1.3l-4.424-3.122a1 1 0 0 0 -1.153 0l-12.981 9.168-3.442-1.081v-3.483a10.932 10.932 0 0 0 6-9.782v-1a2.99 2.99 0 0 0 1.41-5.632 2.709 2.709 0 0 0 .154-.261l.1-.206a2.982 2.982 0 0 0 -1.664-4.152v-5.109a3.013 3.013 0 0 0 -2.415-2.94l-6.827-1.373a9.355 9.355 0 0 0 -3.526 0l-6.821 1.373a3.013 3.013 0 0 0 -2.411 2.94v5.109a2.981 2.981 0 0 0 -1.667 4.151l.1.2a2.826 2.826 0 0 0 .158.261 2.99 2.99 0 0 0 1.409 5.639v1a10.989 10.989 0 0 0 6 9.788v3.477l-8.277 2.589a10.943 10.943 0 0 0 -7.723 10.496v11.65a1 1 0 0 0 1 1h40a1 1 0 0 0 1-1v-3h10a2 2 0 0 0 2-2v-13.693l1.9 1.393a2.786 2.786 0 1 0 3.255-4.522zm-9.157-8.18h2v3.128l-2-1.411zm-23.94 7.381-.772 4.025-2.675-1.6 2.666-2.666zm-8.06-4.811a10.692 10.692 0 0 0 6 0v3.015l-3 3-3-3zm-6.7-17.822a1 1 0 0 1 -1.072-.537l-.1-.2a1 1 0 0 1 .742-1.436l8.768-1.348a8.971 8.971 0 0 1 2.737 0l8.767 1.348a1 1 0 0 1 .744 1.434l-.1.206a1.006 1.006 0 0 1 -1.073.537l-8.103-1.477a8.98 8.98 0 0 0 -3.22 0zm20.7 4.252v-2a1 1 0 0 1 0 2zm-2-13.36v4.733l-2.576-.4 1.091-5.453.676.136a1.007 1.007 0 0 1 .809.984zm-10.382-2.348a7.31 7.31 0 0 1 2.754 0l4.182.84-1.108 5.543-2.773-.427a10.907 10.907 0 0 0 -3.345 0l-2.774.427-1.108-5.545zm-6.813 1.368.68-.136 1.091 5.453-2.576.4v-4.737a1.007 1.007 0 0 1 .805-.98zm-3.805 13.34a1 1 0 0 1 1-1v2a1 1 0 0 1 -1-1zm3 4v-5.348l7.748-1.408a6.977 6.977 0 0 1 2.5 0l7.752 1.408v5.348a9 9 0 0 1 -18 0zm4.721 15.135 2.666 2.665-2.675 1.6-.772-4.027zm-14.721 11.215a8.951 8.951 0 0 1 6.319-8.586l5.7-1.784 1 5.208a1 1 0 0 0 1.5.669l4.481-2.691 4.485 2.691a1 1 0 0 0 1.5-.669l.064-.336a2.75 2.75 0 0 0 3.051-.152l1.9-1.393v13.693a1.993 1.993 0 0 0 1 1.722v2.278h-24v-11h-2v11h-5zm38 10.65h-5v-2h5zm-2-4v-6h4v6zm14 0h-8v-7a1 1 0 0 0 -1-1h-6a1 1 0 0 0 -1 1v7h-2v-15.16l9-6.6 9 6.6zm6.2-14.108a.786.786 0 0 1 -1.118.2l-13.494-9.9a1 1 0 0 0 -1.184 0l-13.493 9.9a.787.787 0 0 1 -1.119-.2.783.783 0 0 1 .2-1.078l15-10.59 15.008 10.589a.784.784 0 0 1 .2 1.079z"/><path d="m47 49v4a1 1 0 0 0 1 1h4a1 1 0 0 0 1-1v-4a1 1 0 0 0 -1-1h-4a1 1 0 0 0 -1 1zm2 1h2v2h-2z"/><path d="m41 42a4 4 0 1 0 4-4 4 4 0 0 0 -4 4zm6 0a2 2 0 1 1 -2-2 2 2 0 0 1 2 2z"/><path d="m17 19h2v2h-2z"/><path d="m27 19h2v2h-2z"/><path d="m23 29a4 4 0 0 0 4-4h-2a2 2 0 0 1 -4 0h-2a4 4 0 0 0 4 4z"/></svg>